<svg xmlns="http://www.w3.org/2000/svg" xmlns:xlink="http://www.w3.org/1999/xlink" zoomAndPan="magnify" preserveAspectRatio="xMidYMid meet" version="1.0" viewBox="23.48 157.8 842.2 156.38"><defs><g/><clipPath id="7fcf1fc2b3"><path d="M 97.703125 40.03125 L 153.097656 40.03125 L 153.097656 117.578125 L 97.703125 117.578125 Z M 97.703125 40.03125 " clip-rule="nonzero"/></clipPath><clipPath id="1771d9e21c"><path d="M 0.492188 0.828125 L 249.753906 0.828125 L 249.753906 157.308594 L 0.492188 157.308594 Z M 0.492188 0.828125 " clip-rule="nonzero"/></clipPath><clipPath id="73147fb716"><path d="M 298 18 L 849.433594 18 L 849.433594 136 L 298 136 Z M 298 18 " clip-rule="nonzero"/></clipPath><clipPath id="44f26538c2"><rect x="0" width="552" y="0" height="118"/></clipPath><clipPath id="79d36ba354"><rect x="0" width="850" y="0" height="158"/></clipPath></defs><g transform="matrix(1, 0, 0, 1, 23, 157)"><g clip-path="url(#79d36ba354)"><g clip-path="url(#7fcf1fc2b3)"><path fill="#ffffff" d="M 149.078125 84.230469 L 127.738281 116.742188 C 127.238281 117.523438 126.457031 117.945312 125.558594 117.945312 C 124.660156 117.945312 123.878906 117.523438 123.378906 116.742188 L 102.039062 84.230469 C 99.292969 79.78125 97.703125 74.484375 97.703125 68.816406 C 97.703125 52.925781 110.167969 40.039062 125.558594 40.039062 C 140.933594 40.039062 153.414062 52.925781 153.414062 68.816406 C 153.414062 74.484375 151.824219 79.78125 149.078125 84.230469 Z M 134.433594 55.980469 L 116.734375 55.980469 C 115.070312 55.980469 113.707031 57.339844 113.707031 59.003906 L 113.707031 76.691406 C 113.707031 78.371094 115.070312 79.714844 116.734375 79.714844 L 134.433594 79.714844 C 136.101562 79.714844 137.445312 78.371094 137.445312 76.691406 L 137.445312 59.003906 C 137.445312 57.339844 136.101562 55.980469 134.433594 55.980469 Z M 131.546875 67.1875 C 131.214844 68.007812 130.714844 68.714844 130.085938 69.277344 C 129.445312 69.84375 128.664062 70.265625 127.75 70.558594 C 126.867188 70.84375 125.800781 70.984375 124.609375 70.984375 L 123.6875 70.984375 L 123.6875 75.996094 C 123.6875 76.214844 123.621094 76.40625 123.480469 76.574219 C 123.351562 76.730469 123.1875 76.832031 122.957031 76.90625 C 122.789062 76.972656 122.570312 77.011719 122.3125 77.035156 C 122.070312 77.074219 121.761719 77.085938 121.390625 77.085938 C 121.042969 77.085938 120.738281 77.074219 120.480469 77.035156 C 120.210938 77.011719 120.003906 76.972656 119.839844 76.90625 C 119.59375 76.832031 119.429688 76.714844 119.300781 76.5625 C 119.183594 76.394531 119.121094 76.203125 119.121094 75.996094 L 119.121094 60.390625 C 119.121094 59.824219 119.289062 59.378906 119.609375 59.070312 C 119.929688 58.761719 120.339844 58.609375 120.839844 58.609375 L 124.917969 58.609375 C 125.339844 58.609375 126.996094 58.761719 127.535156 58.878906 C 128.097656 58.980469 128.675781 59.183594 129.253906 59.492188 C 129.828125 59.800781 130.34375 60.183594 130.753906 60.660156 C 131.175781 61.132812 131.496094 61.699219 131.714844 62.328125 C 131.933594 62.941406 132.046875 63.648438 132.046875 64.40625 C 132.046875 65.441406 131.882812 66.378906 131.546875 67.1875 Z M 126.457031 62.722656 C 126.199219 62.582031 125.929688 62.480469 125.660156 62.441406 C 125.339844 62.390625 125.007812 62.378906 124.671875 62.378906 L 123.6875 62.378906 L 123.6875 67.226562 L 124.75 67.226562 C 125.238281 67.226562 125.648438 67.160156 125.96875 67.035156 C 126.277344 66.90625 126.519531 66.75 126.710938 66.535156 C 126.90625 66.316406 127.046875 66.046875 127.148438 65.738281 C 127.265625 65.40625 127.316406 65.046875 127.316406 64.660156 C 127.316406 64.136719 127.226562 63.726562 127.058594 63.402344 C 126.890625 63.097656 126.6875 62.867188 126.457031 62.722656 Z M 125.558594 46.746094 C 114.183594 46.746094 104.960938 56.273438 104.960938 68.019531 C 104.960938 79.78125 114.183594 89.308594 125.558594 89.308594 C 136.933594 89.308594 146.15625 79.78125 146.15625 68.019531 C 146.15625 56.273438 136.933594 46.746094 125.558594 46.746094 Z M 125.558594 46.746094 " fill-opacity="1" fill-rule="evenodd"/></g><g clip-path="url(#1771d9e21c)"><path fill="#ffffff" d="M 8.308594 0.832031 C 7.796875 0.832031 7.285156 0.882812 6.785156 0.980469 C 6.28125 1.082031 5.792969 1.230469 5.316406 1.425781 C 4.84375 1.625 4.394531 1.863281 3.964844 2.148438 C 3.539062 2.433594 3.144531 2.757812 2.78125 3.121094 C 2.417969 3.484375 2.09375 3.878906 1.808594 4.304688 C 1.523438 4.730469 1.285156 5.183594 1.085938 5.65625 C 0.890625 6.132812 0.742188 6.621094 0.640625 7.125 C 0.542969 7.625 0.492188 8.136719 0.492188 8.648438 L 0.492188 149.34375 C 0.492188 149.859375 0.542969 150.367188 0.640625 150.871094 C 0.742188 151.375 0.890625 151.863281 1.085938 152.335938 C 1.285156 152.808594 1.523438 153.261719 1.808594 153.6875 C 2.09375 154.113281 2.417969 154.507812 2.78125 154.871094 C 3.144531 155.234375 3.539062 155.558594 3.964844 155.84375 C 4.394531 156.128906 4.84375 156.371094 5.316406 156.566406 C 5.792969 156.761719 6.28125 156.910156 6.785156 157.011719 C 7.285156 157.109375 7.796875 157.160156 8.308594 157.160156 L 31.757812 157.160156 L 31.757812 141.527344 L 16.125 141.527344 L 16.125 16.464844 L 78.65625 16.464844 L 78.65625 141.527344 L 63.023438 141.527344 L 63.023438 157.160156 L 109.921875 157.160156 L 109.921875 141.527344 L 94.289062 141.527344 L 94.289062 16.464844 L 156.820312 16.464844 L 156.820312 141.527344 L 141.1875 141.527344 L 141.1875 157.160156 L 188.085938 157.160156 L 188.085938 141.527344 L 172.453125 141.527344 L 172.453125 16.464844 L 234.988281 16.464844 L 234.988281 141.527344 L 219.355469 141.527344 L 219.355469 157.160156 L 242.804688 157.160156 C 243.316406 157.160156 243.824219 157.109375 244.328125 157.011719 C 244.832031 156.910156 245.320312 156.761719 245.792969 156.566406 C 246.269531 156.371094 246.71875 156.128906 247.144531 155.84375 C 247.574219 155.558594 247.96875 155.234375 248.328125 154.871094 C 248.691406 154.507812 249.015625 154.113281 249.300781 153.6875 C 249.585938 153.261719 249.828125 152.808594 250.023438 152.335938 C 250.222656 151.863281 250.371094 151.375 250.46875 150.871094 C 250.570312 150.367188 250.621094 149.859375 250.621094 149.34375 L 250.621094 8.648438 C 250.621094 8.136719 250.570312 7.625 250.46875 7.125 C 250.367188 6.621094 250.222656 6.132812 250.023438 5.65625 C 249.828125 5.183594 249.585938 4.730469 249.300781 4.304688 C 249.015625 3.878906 248.691406 3.484375 248.328125 3.121094 C 247.96875 2.757812 247.574219 2.433594 247.144531 2.148438 C 246.71875 1.863281 246.269531 1.625 245.792969 1.425781 C 245.320312 1.230469 244.832031 1.082031 244.328125 0.980469 C 243.824219 0.882812 243.316406 0.832031 242.804688 0.832031 Z M 8.308594 0.832031 " fill-opacity="1" fill-rule="nonzero"/></g><g clip-path="url(#73147fb716)"><g transform="matrix(1, 0, 0, 1, 298, 18)"><g clip-path="url(#44f26538c2)"><g fill="#ffffff" fill-opacity="1"><g transform="translate(0.240804, 98.66241)"><g><path d="M 10.84375 -60.96875 C 15.03125 -65.9375 22.507812 -68.421875 33.28125 -68.421875 C 44.050781 -68.421875 51.546875 -65.9375 55.765625 -60.96875 C 59.984375 -56.007812 62.09375 -46.878906 62.09375 -33.578125 C 62.09375 -20.273438 59.984375 -11.140625 55.765625 -6.171875 C 51.546875 -1.210938 44.050781 1.265625 33.28125 1.265625 C 22.507812 1.265625 15.03125 -1.210938 10.84375 -6.171875 C 6.664062 -11.140625 4.578125 -20.273438 4.578125 -33.578125 C 4.578125 -46.878906 6.664062 -56.007812 10.84375 -60.96875 Z M 43.640625 -51.671875 C 41.796875 -54.859375 38.34375 -56.453125 33.28125 -56.453125 C 28.21875 -56.453125 24.757812 -54.859375 22.90625 -51.671875 C 21.0625 -48.492188 20.140625 -42.460938 20.140625 -33.578125 C 20.140625 -24.691406 21.0625 -18.65625 22.90625 -15.46875 C 24.757812 -12.289062 28.21875 -10.703125 33.28125 -10.703125 C 38.34375 -10.703125 41.796875 -12.289062 43.640625 -15.46875 C 45.492188 -18.65625 46.421875 -24.691406 46.421875 -33.578125 C 46.421875 -42.460938 45.492188 -48.492188 43.640625 -51.671875 Z M 43.640625 -51.671875 "/></g></g></g><g fill="#ffffff" fill-opacity="1"><g transform="translate(70.673081, 98.66241)"><g><path d="M 6.8125 0 L 6.8125 -67.15625 C 12.84375 -67.738281 21.34375 -68.03125 32.3125 -68.03125 C 41.71875 -68.03125 48.15625 -66.503906 51.625 -63.453125 C 55.101562 -60.410156 56.84375 -54.640625 56.84375 -46.140625 C 56.84375 -37.640625 55.203125 -31.847656 51.921875 -28.765625 C 48.648438 -25.679688 42.765625 -24.140625 34.265625 -24.140625 C 29.972656 -24.140625 25.753906 -24.398438 21.609375 -24.921875 L 21.609375 0 Z M 21.609375 -35.53125 L 32.015625 -35.53125 C 35.847656 -35.59375 38.460938 -36.335938 39.859375 -37.765625 C 41.253906 -39.191406 41.953125 -41.976562 41.953125 -46.125 C 41.953125 -50.28125 41.253906 -53.070312 39.859375 -54.5 C 38.460938 -55.925781 35.847656 -56.640625 32.015625 -56.640625 L 21.609375 -56.546875 Z M 21.609375 -35.53125 "/></g></g></g><g fill="#ffffff" fill-opacity="1"><g transform="translate(134.295879, 98.66241)"><g><path d="M 51.484375 -11.578125 L 52.171875 -0.6875 C 46.066406 -0.03125 35.679688 0.296875 21.015625 0.296875 C 16.546875 0.296875 12.976562 -0.914062 10.3125 -3.34375 C 7.65625 -5.78125 6.296875 -9.078125 6.234375 -13.234375 L 6.234375 -53.921875 C 6.296875 -58.078125 7.65625 -61.367188 10.3125 -63.796875 C 12.976562 -66.234375 16.546875 -67.453125 21.015625 -67.453125 C 35.679688 -67.453125 46.066406 -67.125 52.171875 -66.46875 L 51.484375 -55.484375 L 25.6875 -55.484375 C 24.070312 -55.484375 22.90625 -55.09375 22.1875 -54.3125 C 21.476562 -53.53125 21.125 -52.265625 21.125 -50.515625 L 21.125 -40.296875 L 47.890625 -40.296875 L 47.890625 -29.59375 L 21.125 -29.59375 L 21.125 -16.640625 C 21.125 -14.828125 21.476562 -13.53125 22.1875 -12.75 C 22.90625 -11.96875 24.070312 -11.578125 25.6875 -11.578125 Z M 51.484375 -11.578125 "/></g></g></g><g fill="#ffffff" fill-opacity="1"><g transform="translate(194.222135, 98.66241)"><g><path d="M 63.453125 -67.15625 L 63.453125 -5.359375 C 63.453125 -1.785156 61.703125 0 58.203125 0 L 48.953125 0 C 47.460938 0 46.296875 -0.335938 45.453125 -1.015625 C 44.609375 -1.703125 43.796875 -2.820312 43.015625 -4.375 L 25.40625 -40.203125 C 23.195312 -44.929688 21.832031 -48.398438 21.3125 -50.609375 L 20.25 -50.609375 C 20.695312 -47.367188 20.921875 -43.800781 20.921875 -39.90625 L 20.921875 0 L 6.8125 0 L 6.8125 -61.796875 C 6.8125 -65.367188 8.597656 -67.15625 12.171875 -67.15625 L 21.21875 -67.15625 C 22.707031 -67.15625 23.875 -66.8125 24.71875 -66.125 C 25.5625 -65.445312 26.375 -64.332031 27.15625 -62.78125 L 44.1875 -28.03125 C 45.8125 -24.789062 47.429688 -21.191406 49.046875 -17.234375 L 50.03125 -17.234375 C 49.632812 -22.285156 49.4375 -26.046875 49.4375 -28.515625 L 49.4375 -67.15625 Z M 63.453125 -67.15625 "/></g></g></g><g fill="#ffffff" fill-opacity="1"><g transform="translate(268.351025, 98.66241)"><g/></g></g><g fill="#ffffff" fill-opacity="1"><g transform="translate(293.354441, 98.66241)"><g><path d="M 31.625 -25.40625 L 18.109375 -30.171875 C 13.109375 -31.984375 9.535156 -34.445312 7.390625 -37.5625 C 5.253906 -40.675781 4.1875 -44.765625 4.1875 -49.828125 C 4.1875 -57.222656 5.984375 -62.171875 9.578125 -64.671875 C 13.179688 -67.171875 19.523438 -68.421875 28.609375 -68.421875 C 37.179688 -68.421875 44.546875 -67.546875 50.703125 -65.796875 L 49.734375 -55.671875 C 44.085938 -55.867188 37.082031 -55.96875 28.71875 -55.96875 C 24.820312 -55.96875 22.222656 -55.625 20.921875 -54.9375 C 19.628906 -54.257812 18.984375 -52.554688 18.984375 -49.828125 C 18.984375 -47.617188 19.46875 -46.03125 20.4375 -45.0625 C 21.414062 -44.09375 23.265625 -43.148438 25.984375 -42.234375 L 38.734375 -37.859375 C 43.921875 -36.046875 47.585938 -33.5625 49.734375 -30.40625 C 51.878906 -27.257812 52.953125 -23.160156 52.953125 -18.109375 C 52.953125 -10.578125 51.132812 -5.460938 47.5 -2.765625 C 43.863281 -0.078125 37.375 1.265625 28.03125 1.265625 C 20.4375 1.265625 12.75 0.421875 4.96875 -1.265625 L 5.84375 -11.96875 C 19.664062 -11.644531 27.0625 -11.484375 28.03125 -11.484375 C 31.988281 -11.484375 34.628906 -11.90625 35.953125 -12.75 C 37.285156 -13.59375 37.953125 -15.34375 37.953125 -18 C 37.953125 -20.269531 37.5 -21.875 36.59375 -22.8125 C 35.6875 -23.757812 34.03125 -24.625 31.625 -25.40625 Z M 31.625 -25.40625 "/></g></g></g><g fill="#ffffff" fill-opacity="1"><g transform="translate(353.864373, 98.66241)"><g><path d="M 6.8125 0 L 6.8125 -67.15625 C 12.84375 -67.738281 21.34375 -68.03125 32.3125 -68.03125 C 41.71875 -68.03125 48.15625 -66.503906 51.625 -63.453125 C 55.101562 -60.410156 56.84375 -54.640625 56.84375 -46.140625 C 56.84375 -37.640625 55.203125 -31.847656 51.921875 -28.765625 C 48.648438 -25.679688 42.765625 -24.140625 34.265625 -24.140625 C 29.972656 -24.140625 25.753906 -24.398438 21.609375 -24.921875 L 21.609375 0 Z M 21.609375 -35.53125 L 32.015625 -35.53125 C 35.847656 -35.59375 38.460938 -36.335938 39.859375 -37.765625 C 41.253906 -39.191406 41.953125 -41.976562 41.953125 -46.125 C 41.953125 -50.28125 41.253906 -53.070312 39.859375 -54.5 C 38.460938 -55.925781 35.847656 -56.640625 32.015625 -56.640625 L 21.609375 -56.546875 Z M 21.609375 -35.53125 "/></g></g></g><g fill="#ffffff" fill-opacity="1"><g transform="translate(417.48717, 98.66241)"><g><path d="M 10.84375 -60.96875 C 15.03125 -65.9375 22.507812 -68.421875 33.28125 -68.421875 C 44.050781 -68.421875 51.546875 -65.9375 55.765625 -60.96875 C 59.984375 -56.007812 62.09375 -46.878906 62.09375 -33.578125 C 62.09375 -20.273438 59.984375 -11.140625 55.765625 -6.171875 C 51.546875 -1.210938 44.050781 1.265625 33.28125 1.265625 C 22.507812 1.265625 15.03125 -1.210938 10.84375 -6.171875 C 6.664062 -11.140625 4.578125 -20.273438 4.578125 -33.578125 C 4.578125 -46.878906 6.664062 -56.007812 10.84375 -60.96875 Z M 43.640625 -51.671875 C 41.796875 -54.859375 38.34375 -56.453125 33.28125 -56.453125 C 28.21875 -56.453125 24.757812 -54.859375 22.90625 -51.671875 C 21.0625 -48.492188 20.140625 -42.460938 20.140625 -33.578125 C 20.140625 -24.691406 21.0625 -18.65625 22.90625 -15.46875 C 24.757812 -12.289062 28.21875 -10.703125 33.28125 -10.703125 C 38.34375 -10.703125 41.796875 -12.289062 43.640625 -15.46875 C 45.492188 -18.65625 46.421875 -24.691406 46.421875 -33.578125 C 46.421875 -42.460938 45.492188 -48.492188 43.640625 -51.671875 Z M 43.640625 -51.671875 "/></g></g></g><g fill="#ffffff" fill-opacity="1"><g transform="translate(487.919447, 98.66241)"><g><path d="M 56.75 -55.09375 L 36.6875 -55.09375 L 36.6875 0 L 21.796875 0 L 21.796875 -55.09375 L 1.75 -55.09375 L 1.75 -67.15625 L 56.75 -67.15625 Z M 56.75 -55.09375 "/></g></g></g></g></g></g></g></g></svg>