<svg xmlns="http://www.w3.org/2000/svg" xmlns:xlink="http://www.w3.org/1999/xlink" width="1000" zoomAndPan="magnify" viewBox="0 0 750 749.999995" height="1000" preserveAspectRatio="xMidYMid meet" version="1.0"><defs><clipPath id="9235b84092"><path d="M 204.621094 82.351562 L 320.675781 82.351562 L 320.675781 244.828125 L 204.621094 244.828125 Z M 204.621094 82.351562 " clip-rule="nonzero"/></clipPath><clipPath id="340fdc15e1"><path d="M 0.945312 0.214844 L 523.191406 0.214844 L 523.191406 327.800781 L 0.945312 327.800781 Z M 0.945312 0.214844 " clip-rule="nonzero"/></clipPath><clipPath id="507a284043"><rect x="0" width="526" y="0" height="328"/></clipPath></defs><g transform="matrix(1, 0, 0, 1, 112, 211)"><g clip-path="url(#507a284043)"><g clip-path="url(#9235b84092)"><path fill="#ffffff" d="M 312.257812 174.957031 L 267.550781 243.070312 C 266.5 244.710938 264.863281 245.597656 262.980469 245.597656 C 261.101562 245.597656 259.460938 244.710938 258.414062 243.070312 L 213.703125 174.957031 C 207.953125 165.636719 204.621094 154.539062 204.621094 142.664062 C 204.621094 109.371094 230.738281 82.367188 262.980469 82.367188 C 295.199219 82.367188 321.339844 109.371094 321.339844 142.664062 C 321.339844 154.539062 318.007812 165.636719 312.257812 174.957031 Z M 281.574219 115.765625 L 244.496094 115.765625 C 241.003906 115.765625 238.152344 118.613281 238.152344 122.109375 L 238.152344 159.160156 C 238.152344 162.679688 241.003906 165.5 244.496094 165.5 L 281.574219 165.5 C 285.066406 165.5 287.890625 162.679688 287.890625 159.160156 L 287.890625 122.109375 C 287.890625 118.613281 285.066406 115.765625 281.574219 115.765625 Z M 275.527344 139.25 C 274.832031 140.96875 273.78125 142.449219 272.464844 143.628906 C 271.121094 144.8125 269.484375 145.699219 267.574219 146.316406 C 265.722656 146.90625 263.492188 147.203125 260.992188 147.203125 L 259.058594 147.203125 L 259.058594 157.707031 C 259.058594 158.164062 258.925781 158.570312 258.628906 158.917969 C 258.359375 159.242188 258.011719 159.457031 257.527344 159.617188 C 257.175781 159.75 256.722656 159.832031 256.183594 159.886719 C 255.671875 159.964844 255.027344 159.992188 254.25 159.992188 C 253.523438 159.992188 252.878906 159.964844 252.339844 159.886719 C 251.777344 159.832031 251.347656 159.75 250.996094 159.617188 C 250.488281 159.457031 250.136719 159.214844 249.871094 158.890625 C 249.628906 158.542969 249.492188 158.140625 249.492188 157.707031 L 249.492188 125.007812 C 249.492188 123.828125 249.84375 122.886719 250.515625 122.242188 C 251.1875 121.597656 252.046875 121.273438 253.09375 121.273438 L 261.636719 121.273438 C 262.523438 121.273438 265.992188 121.597656 267.121094 121.839844 C 268.300781 122.054688 269.511719 122.484375 270.71875 123.128906 C 271.929688 123.773438 273.003906 124.578125 273.863281 125.574219 C 274.75 126.566406 275.421875 127.75 275.878906 129.066406 C 276.335938 130.355469 276.578125 131.835938 276.578125 133.417969 C 276.578125 135.597656 276.226562 137.558594 275.527344 139.25 Z M 264.863281 129.898438 C 264.324219 129.605469 263.761719 129.390625 263.195312 129.308594 C 262.523438 129.199219 261.824219 129.175781 261.128906 129.175781 L 259.058594 129.175781 L 259.058594 139.332031 L 261.289062 139.332031 C 262.308594 139.332031 263.167969 139.195312 263.839844 138.925781 C 264.484375 138.660156 264.996094 138.335938 265.398438 137.878906 C 265.800781 137.421875 266.097656 136.859375 266.3125 136.214844 C 266.554688 135.515625 266.664062 134.761719 266.664062 133.957031 C 266.664062 132.855469 266.472656 131.996094 266.125 131.324219 C 265.777344 130.679688 265.347656 130.195312 264.863281 129.898438 Z M 262.980469 96.421875 C 239.148438 96.421875 219.828125 116.382812 219.828125 140.996094 C 219.828125 165.636719 239.148438 185.597656 262.980469 185.597656 C 286.8125 185.597656 306.132812 165.636719 306.132812 140.996094 C 306.132812 116.382812 286.8125 96.421875 262.980469 96.421875 Z M 262.980469 96.421875 " fill-opacity="1" fill-rule="evenodd"/></g><g clip-path="url(#340fdc15e1)"><path fill="#ffffff" d="M 17.324219 0.222656 C 16.785156 0.222656 16.25 0.25 15.71875 0.304688 C 15.183594 0.355469 14.652344 0.433594 14.128906 0.539062 C 13.601562 0.644531 13.082031 0.773438 12.570312 0.929688 C 12.054688 1.085938 11.550781 1.265625 11.054688 1.472656 C 10.5625 1.675781 10.078125 1.90625 9.601562 2.15625 C 9.128906 2.410156 8.671875 2.6875 8.226562 2.984375 C 7.777344 3.28125 7.347656 3.601562 6.933594 3.941406 C 6.519531 4.28125 6.121094 4.640625 5.742188 5.019531 C 5.363281 5.398438 5.003906 5.796875 4.664062 6.210938 C 4.324219 6.625 4.003906 7.058594 3.707031 7.503906 C 3.410156 7.949219 3.132812 8.40625 2.878906 8.882812 C 2.628906 9.355469 2.398438 9.839844 2.191406 10.332031 C 1.988281 10.828125 1.808594 11.332031 1.652344 11.847656 C 1.496094 12.359375 1.367188 12.878906 1.261719 13.40625 C 1.15625 13.933594 1.078125 14.460938 1.023438 14.996094 C 0.972656 15.53125 0.945312 16.0625 0.945312 16.601562 L 0.945312 311.382812 C 0.945312 311.917969 0.972656 312.453125 1.023438 312.988281 C 1.078125 313.523438 1.15625 314.050781 1.261719 314.578125 C 1.367188 315.105469 1.496094 315.625 1.652344 316.136719 C 1.808594 316.648438 1.988281 317.15625 2.191406 317.648438 C 2.398438 318.144531 2.628906 318.628906 2.878906 319.101562 C 3.132812 319.574219 3.410156 320.035156 3.707031 320.480469 C 4.003906 320.925781 4.324219 321.359375 4.664062 321.773438 C 5.003906 322.1875 5.363281 322.582031 5.742188 322.964844 C 6.121094 323.34375 6.519531 323.703125 6.933594 324.042969 C 7.347656 324.382812 7.777344 324.703125 8.226562 325 C 8.671875 325.296875 9.128906 325.574219 9.601562 325.824219 C 10.078125 326.078125 10.5625 326.308594 11.054688 326.511719 C 11.550781 326.71875 12.054688 326.898438 12.570312 327.054688 C 13.082031 327.210938 13.601562 327.339844 14.128906 327.445312 C 14.652344 327.550781 15.183594 327.628906 15.71875 327.679688 C 16.25 327.734375 16.785156 327.761719 17.324219 327.761719 L 66.453125 327.761719 L 66.453125 295.007812 L 33.699219 295.007812 L 33.699219 32.976562 L 164.714844 32.976562 L 164.714844 295.007812 L 131.960938 295.007812 L 131.960938 327.761719 L 230.222656 327.761719 L 230.222656 295.007812 L 197.46875 295.007812 L 197.46875 32.976562 L 328.484375 32.976562 L 328.484375 295.007812 L 295.730469 295.007812 L 295.730469 327.761719 L 393.988281 327.761719 L 393.988281 295.007812 L 361.234375 295.007812 L 361.234375 32.976562 L 492.25 32.976562 L 492.25 295.007812 L 459.496094 295.007812 L 459.496094 327.761719 L 508.628906 327.761719 C 509.164062 327.761719 509.699219 327.734375 510.234375 327.679688 C 510.765625 327.628906 511.296875 327.550781 511.820312 327.445312 C 512.347656 327.339844 512.867188 327.210938 513.382812 327.054688 C 513.894531 326.898438 514.398438 326.71875 514.894531 326.511719 C 515.390625 326.308594 515.875 326.078125 516.347656 325.824219 C 516.820312 325.574219 517.28125 325.296875 517.726562 325 C 518.171875 324.703125 518.601562 324.382812 519.015625 324.042969 C 519.429688 323.703125 519.828125 323.34375 520.207031 322.964844 C 520.585938 322.582031 520.945312 322.1875 521.285156 321.773438 C 521.625 321.359375 521.945312 320.925781 522.242188 320.480469 C 522.542969 320.035156 522.816406 319.574219 523.070312 319.101562 C 523.324219 318.628906 523.550781 318.144531 523.757812 317.648438 C 523.960938 317.15625 524.144531 316.648438 524.296875 316.136719 C 524.453125 315.625 524.585938 315.105469 524.6875 314.578125 C 524.792969 314.050781 524.871094 313.523438 524.925781 312.988281 C 524.976562 312.453125 525.003906 311.917969 525.003906 311.382812 L 525.003906 16.601562 C 525.003906 16.0625 524.976562 15.53125 524.925781 14.996094 C 524.871094 14.460938 524.792969 13.933594 524.6875 13.40625 C 524.585938 12.878906 524.453125 12.359375 524.296875 11.847656 C 524.144531 11.332031 523.960938 10.828125 523.757812 10.332031 C 523.550781 9.839844 523.324219 9.355469 523.070312 8.882812 C 522.816406 8.40625 522.542969 7.949219 522.242188 7.503906 C 521.945312 7.058594 521.625 6.625 521.285156 6.210938 C 520.945312 5.796875 520.585938 5.398438 520.207031 5.019531 C 519.828125 4.640625 519.429688 4.28125 519.015625 3.941406 C 518.601562 3.601562 518.171875 3.28125 517.726562 2.984375 C 517.28125 2.6875 516.820312 2.410156 516.347656 2.15625 C 515.875 1.90625 515.390625 1.675781 514.894531 1.472656 C 514.398438 1.265625 513.894531 1.085938 513.382812 0.929688 C 512.867188 0.773438 512.347656 0.644531 511.820312 0.539062 C 511.296875 0.433594 510.765625 0.355469 510.234375 0.304688 C 509.699219 0.25 509.164062 0.222656 508.628906 0.222656 Z M 17.324219 0.222656 " fill-opacity="1" fill-rule="nonzero"/></g></g></g></svg>