<svg id="visual" viewBox="0 0 960 540" width="960" height="540" xmlns="http://www.w3.org/2000/svg" xmlns:xlink="http://www.w3.org/1999/xlink" version="1.1"><path d="M0 50L26.7 48.2C53.3 46.3 106.7 42.7 160 40.8C213.3 39 266.7 39 320 39.8C373.3 40.7 426.7 42.3 480 39.7C533.3 37 586.7 30 640 30C693.3 30 746.7 37 800 37.8C853.3 38.7 906.7 33.3 933.3 30.7L960 28L960 0L933.3 0C906.7 0 853.3 0 800 0C746.7 0 693.3 0 640 0C586.7 0 533.3 0 480 0C426.7 0 373.3 0 320 0C266.7 0 213.3 0 160 0C106.7 0 53.3 0 26.7 0L0 0Z" fill="#122156"></path><path d="M0 104L26.7 104C53.3 104 106.7 104 160 99.5C213.3 95 266.7 86 320 82.3C373.3 78.7 426.7 80.3 480 86.5C533.3 92.7 586.7 103.3 640 103.3C693.3 103.3 746.7 92.7 800 89.2C853.3 85.7 906.7 89.3 933.3 91.2L960 93L960 26L933.3 28.7C906.7 31.3 853.3 36.7 800 35.8C746.7 35 693.3 28 640 28C586.7 28 533.3 35 480 37.7C426.7 40.3 373.3 38.7 320 37.8C266.7 37 213.3 37 160 38.8C106.7 40.7 53.3 44.3 26.7 46.2L0 48Z" fill="#162c70"></path><path d="M0 222L26.7 217.5C53.3 213 106.7 204 160 187C213.3 170 266.7 145 320 145C373.3 145 426.7 170 480 181.7C533.3 193.3 586.7 191.7 640 188.2C693.3 184.7 746.7 179.3 800 172.2C853.3 165 906.7 156 933.3 151.5L960 147L960 91L933.3 89.2C906.7 87.3 853.3 83.7 800 87.2C746.7 90.7 693.3 101.3 640 101.3C586.7 101.3 533.3 90.7 480 84.5C426.7 78.3 373.3 76.7 320 80.3C266.7 84 213.3 93 160 97.5C106.7 102 53.3 102 26.7 102L0 102Z" fill="#19388a"></path><path d="M0 303L26.7 313C53.3 323 106.7 343 160 351.2C213.3 359.3 266.7 355.7 320 353.8C373.3 352 426.7 352 480 334.8C533.3 317.7 586.7 283.3 640 279.7C693.3 276 746.7 303 800 313.8C853.3 324.7 906.7 319.3 933.3 316.7L960 314L960 145L933.3 149.5C906.7 154 853.3 163 800 170.2C746.7 177.3 693.3 182.7 640 186.2C586.7 189.7 533.3 191.3 480 179.7C426.7 168 373.3 143 320 143C266.7 143 213.3 168 160 185C106.7 202 53.3 211 26.7 215.5L0 220Z" fill="#1a44a6"></path><path d="M0 352L26.7 362.8C53.3 373.7 106.7 395.3 160 406.2C213.3 417 266.7 417 320 413.3C373.3 409.7 426.7 402.3 480 387C533.3 371.7 586.7 348.3 640 348.3C693.3 348.3 746.7 371.7 800 374.3C853.3 377 906.7 359 933.3 350L960 341L960 312L933.3 314.7C906.7 317.3 853.3 322.7 800 311.8C746.7 301 693.3 274 640 277.7C586.7 281.3 533.3 315.7 480 332.8C426.7 350 373.3 350 320 351.8C266.7 353.7 213.3 357.3 160 349.2C106.7 341 53.3 321 26.7 311L0 301Z" fill="#1951c3"></path><path d="M0 514L26.7 508.7C53.3 503.3 106.7 492.7 160 491.8C213.3 491 266.7 500 320 501.7C373.3 503.3 426.7 497.7 480 498.5C533.3 499.3 586.7 506.7 640 509.5C693.3 512.3 746.7 510.7 800 505.3C853.3 500 906.7 491 933.3 486.5L960 482L960 339L933.3 348C906.7 357 853.3 375 800 372.3C746.7 369.7 693.3 346.3 640 346.3C586.7 346.3 533.3 369.7 480 385C426.7 400.3 373.3 407.7 320 411.3C266.7 415 213.3 415 160 404.2C106.7 393.3 53.3 371.7 26.7 360.8L0 350Z" fill="#155ee1"></path><path d="M0 541L26.7 541C53.3 541 106.7 541 160 541C213.3 541 266.7 541 320 541C373.3 541 426.7 541 480 541C533.3 541 586.7 541 640 541C693.3 541 746.7 541 800 541C853.3 541 906.7 541 933.3 541L960 541L960 480L933.3 484.5C906.7 489 853.3 498 800 503.3C746.7 508.7 693.3 510.3 640 507.5C586.7 504.7 533.3 497.3 480 496.5C426.7 495.7 373.3 501.3 320 499.7C266.7 498 213.3 489 160 489.8C106.7 490.7 53.3 501.3 26.7 506.7L0 512Z" fill="#0a6bff"></path></svg>